<?xml version="1.0" standalone="no"?>
<svg xmlns:xlink="http://www.w3.org/1999/xlink" id="wave" style="transform:rotate(180deg); transition: 0.3s" viewBox="0 0 1440 100" version="1.1" xmlns="http://www.w3.org/2000/svg"><defs><linearGradient id="sw-gradient-0" x1="0" x2="0" y1="1" y2="0"><stop stop-color="rgba(255, 249, 234, 1)" offset="0%"/><stop stop-color="rgba(255, 249, 234, 1)" offset="100%"/></linearGradient></defs><path style="transform:translate(0, 0px); opacity:1" fill="url(#sw-gradient-0)" d="M0,70L21.8,58.3C43.6,47,87,23,131,15C174.5,7,218,13,262,21.7C305.5,30,349,40,393,40C436.4,40,480,30,524,30C567.3,30,611,40,655,50C698.2,60,742,70,785,61.7C829.1,53,873,27,916,25C960,23,1004,47,1047,53.3C1090.9,60,1135,50,1178,46.7C1221.8,43,1265,47,1309,55C1352.7,63,1396,77,1440,70C1483.6,63,1527,37,1571,25C1614.5,13,1658,17,1702,30C1745.5,43,1789,67,1833,75C1876.4,83,1920,77,1964,73.3C2007.3,70,2051,70,2095,58.3C2138.2,47,2182,23,2225,23.3C2269.1,23,2313,47,2356,48.3C2400,50,2444,30,2487,23.3C2530.9,17,2575,23,2618,35C2661.8,47,2705,63,2749,58.3C2792.7,53,2836,27,2880,13.3C2923.6,0,2967,0,3011,1.7C3054.5,3,3098,7,3120,8.3L3141.8,10L3141.8,100L3120,100C3098.2,100,3055,100,3011,100C2967.3,100,2924,100,2880,100C2836.4,100,2793,100,2749,100C2705.5,100,2662,100,2618,100C2574.5,100,2531,100,2487,100C2443.6,100,2400,100,2356,100C2312.7,100,2269,100,2225,100C2181.8,100,2138,100,2095,100C2050.9,100,2007,100,1964,100C1920,100,1876,100,1833,100C1789.1,100,1745,100,1702,100C1658.2,100,1615,100,1571,100C1527.3,100,1484,100,1440,100C1396.4,100,1353,100,1309,100C1265.5,100,1222,100,1178,100C1134.5,100,1091,100,1047,100C1003.6,100,960,100,916,100C872.7,100,829,100,785,100C741.8,100,698,100,655,100C610.9,100,567,100,524,100C480,100,436,100,393,100C349.1,100,305,100,262,100C218.2,100,175,100,131,100C87.3,100,44,100,22,100L0,100Z"/></svg>